<svg width="176" height="62" viewBox="0 0 176 62" fill="none" xmlns="http://www.w3.org/2000/svg">
<g clip-path="url(#clip0_1_53990)">
<g filter="url(#filter0_d_1_53990)">
<path d="M27.0065 8.8279C26.3131 9.47648 25.3692 9.88549 24.6059 10.125C22.0014 2.27791 11.7348 -0.684488 5.27306 5.35717C-2.49388 12.8187 2.13249 24.7442 11.4784 26.3803C11.257 26.7192 11.0123 27.0288 10.7385 27.3385C-0.728401 24.9663 -3.96802 9.72188 5.72754 2.62265C12.8069 -2.5484 23.0851 0.238704 26.7385 8.2027C26.8317 8.40721 26.9249 8.61756 27.0123 8.8279H27.0065Z" fill="white"/>
</g>
<g filter="url(#filter1_d_1_53990)">
<path d="M26.785 18.3535V26.002H19.7697C18.5869 26.6447 17.3167 27.1063 16.0057 27.3693C15.7552 27.0829 15.5279 26.785 15.3298 26.4753C15.493 26.4519 15.6503 26.4285 15.8134 26.4052C16.9613 26.2065 18.0917 25.8501 19.1579 25.3593V18.3594H26.785V18.3535Z" fill="white"/>
</g>
<g filter="url(#filter2_d_1_53990)">
<path d="M39.9884 13.0702C39.9651 16.3949 37.3023 19.1528 33.987 19.2697C32.5653 19.3222 31.1319 18.8431 30.0132 17.9725C28.9236 17.1253 28.2885 15.8573 27.1873 15.051C26.1268 14.2681 24.8333 14.1278 23.5165 14.1278C22.8347 14.1278 22.2346 14.2213 21.6985 14.3908C21.6869 14.3908 21.6694 14.4024 21.6519 14.4083C20.9353 14.6829 19.3446 15.945 18.3774 16.7513C18.3657 16.763 18.3424 16.7864 18.3016 16.8156C18.1967 16.9091 17.9928 17.0961 17.7248 17.3298C17.5674 17.4759 17.381 17.6453 17.1829 17.8264C16.5245 18.4458 15.7437 19.2054 15.2426 19.7955C15.2251 19.8131 15.2135 19.8306 15.196 19.854C15.0678 20.0292 14.928 20.2454 14.8173 20.4908C14.4735 21.3498 14.3977 22.308 14.3977 23.2721C14.3977 24.6043 14.759 25.5976 15.3358 26.4741C15.5339 26.7837 15.767 27.0817 16.0117 27.368C16.5303 27.9757 17.1304 28.5542 17.7597 29.1911C18.861 30.3129 19.531 31.8555 19.531 33.5499C19.531 36.9973 16.7342 39.7961 13.2907 39.7844C10.0219 39.7727 7.27757 37.1609 7.10277 33.883C7.01537 32.2762 7.57473 30.6284 8.6818 29.4423C9.41595 28.6593 10.1385 28.0166 10.7444 27.333C11.0183 27.0291 11.263 26.7136 11.4844 26.3747C12.0088 25.5509 12.3409 24.5985 12.3409 23.2663C12.3409 21.9341 12.1836 20.7187 11.3271 19.6319C10.9425 19.1411 10.4414 18.7204 9.9287 18.2997C9.9287 18.2997 9.92482 18.2958 9.91705 18.288C9.35769 17.9316 8.86242 17.4817 8.45456 16.9734C8.39629 16.9032 8.33802 16.839 8.27976 16.763C8.1807 16.6286 8.08748 16.4884 8.00008 16.354C7.38828 15.3841 7.03868 14.233 7.04451 13.006C7.04451 12.036 7.27757 11.1187 7.69126 10.3007C7.73788 10.2072 7.78449 10.1137 7.8311 10.0202C7.88354 9.93255 7.92433 9.8449 7.97677 9.7631C8.05252 9.6404 8.12826 9.51185 8.21566 9.40084C8.27393 9.31904 8.32637 9.24892 8.39046 9.16712C8.507 9.0152 8.63518 8.87497 8.7692 8.72889C8.89738 8.5945 9.03722 8.45427 9.18289 8.32573C9.4043 8.13875 9.63737 7.96346 9.87043 7.8057C9.95783 7.74727 10.0336 7.70053 10.121 7.64794C10.4298 7.46096 10.7619 7.30905 11.0999 7.18634C11.2455 7.13376 11.3912 7.08701 11.5427 7.04027C11.9913 6.90588 12.4516 6.81823 12.9353 6.79486C14.5376 6.70722 16.1807 7.26814 17.3635 8.37831C19.3446 10.2539 20.44 12.0477 23.5281 12.0477C23.598 12.0477 23.6621 12.0477 23.732 12.0477C24.1865 12.0477 24.6294 12.0185 25.0722 11.9542C25.8996 11.8198 26.6803 11.5452 27.3621 11.0135C27.4611 10.9317 27.566 10.8499 27.6592 10.7564C28.2827 10.2013 28.8071 9.53523 29.3723 8.90418C29.8384 8.37831 30.3395 7.8875 30.9455 7.51939C31.8602 6.97015 32.8333 6.73059 33.783 6.73643C37.0052 6.76565 40.0176 9.63456 40.0001 13.0586L39.9884 13.0702Z" fill="white"/>
</g>
<g filter="url(#filter3_d_1_53990)">
<path d="M31.3242 27.3848H45.6928V31.7845H37.2091V35.4656H45.1509V39.8712H37.2091V47.4963H31.3242V27.3906V27.3848Z" fill="white"/>
<path d="M54.4909 27.3848V47.4905H48.4836V27.3848H54.4909Z" fill="white"/>
<path d="M61.9958 31.7962H56.7751V27.3848H73.1714V31.7962H67.9973V47.4905H61.99V31.7962H61.9958Z" fill="white"/>
<path d="M75.4902 47.4905V27.3848H82.6454C86.0714 35.9564 87.2659 39.0123 87.6097 40.1692H87.7262C87.5165 37.8554 87.4349 34.3438 87.4349 31.2645V27.3848H92.9352V47.4905H86.0481C82.4123 38.1651 81.2528 35.2728 80.8682 34.1101H80.7925C80.9848 36.5232 80.9848 40.0115 80.9848 43.4705V47.4905H75.4961H75.4902Z" fill="white"/>
<path d="M101.098 43.5991L100.16 47.4905H94.2871L99.8865 27.3848H107.968L113.806 47.4905H107.578L106.546 43.5991H101.098ZM105.585 39.0415C104.868 36.2895 104.204 33.3855 103.796 31.2879H103.697C103.301 33.5024 102.672 36.3245 101.99 39.0415H105.585Z" fill="white"/>
<path d="M119.109 41.3036C119.324 42.9455 120.286 43.8336 122.022 43.8336C123.758 43.8336 124.318 43.15 124.318 42.0924C124.318 40.7661 123.426 40.1642 120.624 39.4163C115.356 38.0199 113.952 36.004 113.952 33.2344C113.952 29.2787 117.116 26.9883 121.748 26.9883C126.916 26.9883 129.608 29.4657 129.836 33.2052H124.195C124.055 32.0133 123.502 30.9966 121.783 30.9966C120.536 30.9966 119.819 31.5517 119.819 32.5508C119.819 33.7019 120.647 34.07 123.38 34.8237C128.909 36.3546 130.348 38.3938 130.348 41.4438C130.348 45.4288 127.289 47.877 121.865 47.877C116.44 47.877 113.672 45.271 113.41 41.2978H119.109V41.3036Z" fill="white"/>
<path d="M135.697 31.7962H130.476V27.3848H146.873V31.7962H141.698V47.4905H135.691V31.7962H135.697Z" fill="white"/>
<path d="M155.199 27.3848V47.4905H149.192V27.3848H155.199Z" fill="white"/>
<path d="M176 40.731C175.412 44.9204 172.685 47.8945 167.097 47.8945C160.251 47.8945 157.798 43.1851 157.798 37.4998C157.798 31.8146 160.711 26.9883 167.318 26.9883C173.553 26.9883 175.715 30.8505 175.913 34.0408H170.004C169.754 32.5158 169.212 31.2537 167.243 31.2537C164.825 31.2537 164.026 33.7253 164.026 37.4414C164.026 41.1575 164.795 43.6058 167.243 43.6058C169.288 43.6058 169.835 42.0749 170.074 40.7193H176V40.731Z" fill="white"/>
</g>
<g filter="url(#filter4_d_1_53990)">
<path d="M31.3999 56.1055H33.7947C35.0241 56.1055 35.8573 56.8008 35.8573 57.8993C35.8573 59.1614 34.9076 59.7398 33.7655 59.7398H32.6526V61.9076H31.3999V56.1055ZM32.6468 58.7407H33.6024C34.1792 58.7407 34.5929 58.5186 34.5929 57.9226C34.5929 57.3267 34.1617 57.0988 33.6315 57.0988H32.6526V58.7348L32.6468 58.7407Z" fill="white"/>
<path d="M41.6141 59.4009H38.8465V60.8733H41.8996L41.754 61.9017H37.6345V56.0996H41.7365V57.128H38.8465V58.3725H41.6141V59.4009Z" fill="white"/>
<path d="M44.8537 59.582V61.9017H43.6301V56.0996H46.1705C47.4291 56.0996 48.1108 56.7949 48.1108 57.6947C48.1108 58.4719 47.6913 58.8926 47.2718 59.0678C47.5573 59.173 47.9885 59.471 47.9885 60.5111V60.7974C47.9885 61.1889 47.9885 61.6329 48.07 61.9017H46.8872C46.7824 61.6505 46.7649 61.2181 46.7649 60.5987V60.5169C46.7649 59.88 46.6076 59.582 45.6753 59.582H44.8537ZM44.8537 58.5829H45.9025C46.5842 58.5829 46.8523 58.3199 46.8523 57.835C46.8523 57.35 46.5435 57.0988 45.9317 57.0988H44.8537V58.5829Z" fill="white"/>
<path d="M50.9658 60.2011C51.0998 60.7854 51.5135 61.0367 52.1836 61.0367C52.8537 61.0367 53.1392 60.7738 53.1392 60.3472C53.1392 59.8739 52.8595 59.6694 51.869 59.4416C50.2958 59.0734 49.9054 58.495 49.9054 57.712C49.9054 56.7012 50.657 56.0117 52.0263 56.0117C53.5645 56.0117 54.1763 56.8414 54.2579 57.6887H52.9993C52.9411 57.3322 52.743 56.9466 51.9972 56.9466C51.4902 56.9466 51.1814 57.1569 51.1814 57.566C51.1814 57.975 51.4261 58.1327 52.3642 58.3489C54.0481 58.7462 54.4152 59.3714 54.4152 60.1895C54.4152 61.247 53.617 61.9774 52.0846 61.9774C50.5521 61.9774 49.8413 61.2529 49.7073 60.1953H50.9658V60.2011Z" fill="white"/>
<path d="M61.5762 58.9858C61.5762 60.5985 60.6089 61.9891 58.7327 61.9891C56.8566 61.9891 55.9651 60.6686 55.9651 59.0033C55.9651 57.3381 57.0139 56.0176 58.8085 56.0176C60.5041 56.0176 61.5762 57.2037 61.5762 58.98V58.9858ZM57.2586 58.98C57.2586 60.1135 57.7539 60.9666 58.7794 60.9666C59.8923 60.9666 60.2885 60.0317 60.2885 58.9975C60.2885 57.899 59.8398 57.0401 58.7619 57.0401C57.6839 57.0401 57.2586 57.8523 57.2586 58.98Z" fill="white"/>
<path d="M63.5105 61.9017V56.0996H65.0604C65.7829 57.4026 67.1172 59.7515 67.3852 60.3825H67.4027C67.3386 59.7748 67.3386 58.7699 67.3386 57.8174V56.0996H68.4748V61.9017H67.0065C66.383 60.7682 64.9031 58.0687 64.6176 57.3968H64.6001C64.6409 57.9051 64.6584 59.0971 64.6584 60.1371V61.9017H63.5163H63.5105Z" fill="white"/>
<path d="M71.7669 60.5637L71.3183 61.9017H70.0889L72.0525 56.0996H73.6256L75.6766 61.9017H74.3598L73.882 60.5637H71.7669ZM73.614 59.5353C73.2061 58.3083 72.9439 57.5311 72.8041 57.0053H72.7983C72.6584 57.5779 72.3671 58.4894 72.035 59.5353H73.614Z" fill="white"/>
<path d="M77.2556 56.1055H78.5083V60.8792H81.3867L81.241 61.9076H77.2498V56.1055H77.2556Z" fill="white"/>
<path d="M84.2185 56.1055V61.9076H82.9658V56.1055H84.2185Z" fill="white"/>
<path d="M87.2483 60.2011C87.3824 60.7854 87.796 61.0367 88.4661 61.0367C89.1362 61.0367 89.4217 60.7738 89.4217 60.3472C89.4217 59.8739 89.142 59.6694 88.1515 59.4416C86.5783 59.0734 86.1879 58.495 86.1879 57.712C86.1879 56.7012 86.9454 56.0117 88.3146 56.0117C89.8529 56.0117 90.4588 56.8414 90.5462 57.6887H89.2877C89.2294 57.3322 89.0313 56.9466 88.2855 56.9466C87.7786 56.9466 87.4697 57.1569 87.4697 57.566C87.4697 57.975 87.7145 58.1327 88.6526 58.3489C90.3365 58.7462 90.7035 59.3714 90.7035 60.1895C90.7035 61.247 89.9053 61.9774 88.3787 61.9774C86.8521 61.9774 86.1354 61.2529 85.9956 60.1953H87.2542L87.2483 60.2011Z" fill="white"/>
<path d="M93.7103 56.1055V61.9076H92.4575V56.1055H93.7103Z" fill="white"/>
<path d="M95.9302 61.9017V56.0996H97.4801C98.2026 57.4026 99.5369 59.7515 99.8049 60.3825H99.8224C99.7583 59.7748 99.7583 58.7699 99.7583 57.8174V56.0996H100.894V61.9017H99.4262C98.8027 60.7682 97.3227 58.0687 97.0372 57.3968H97.0198C97.0605 57.9051 97.078 59.0971 97.078 60.1371V61.9017H95.936H95.9302Z" fill="white"/>
<path d="M108.137 61.9015H107.222C107.176 61.7203 107.141 61.5217 107.129 61.3288C106.808 61.7612 106.243 61.9949 105.439 61.9949C103.761 61.9949 102.823 60.7212 102.823 59.0676C102.823 57.3264 103.837 56.0117 105.661 56.0117C107.146 56.0117 108.026 56.8531 108.166 57.8406H106.913C106.797 57.4491 106.488 56.9933 105.643 56.9933C104.454 56.9933 104.117 57.9925 104.117 59.0092C104.117 60.0259 104.507 60.9899 105.649 60.9899C106.721 60.9899 106.913 60.2479 106.913 59.7279V59.6753H105.643V58.6469H108.137V61.8898V61.9015Z" fill="white"/>
<path d="M113.119 56.1055H114.371V58.3667H116.696V56.1055H117.949V61.9076H116.696V59.3951H114.371V61.9076H113.119V56.1055Z" fill="white"/>
<path d="M124.154 59.4009H121.387V60.8733H124.44L124.294 61.9017H120.175V56.0996H124.277V57.128H121.387V58.3725H124.154V59.4009Z" fill="white"/>
<path d="M127.464 60.5637L127.015 61.9017H125.786L127.749 56.0996H129.323L131.374 61.9017H130.057L129.579 60.5637H127.464ZM129.311 59.5353C128.903 58.3083 128.641 57.5311 128.501 57.0053H128.495C128.35 57.5779 128.064 58.4894 127.732 59.5353H129.311Z" fill="white"/>
<path d="M132.953 56.1055H134.205V60.8792H137.084L136.938 61.9076H132.947V56.1055H132.953Z" fill="white"/>
<path d="M138.989 57.1338H137.229V56.1055H141.99V57.1338H140.236V61.9076H138.983V57.1338H138.989Z" fill="white"/>
<path d="M143.61 56.1055H144.862V58.3667H147.187V56.1055H148.44V61.9076H147.187V59.3951H144.862V61.9076H143.61V56.1055Z" fill="white"/>
<path d="M155.566 60.1135C155.333 61.1945 154.523 61.9833 153.072 61.9833C151.237 61.9833 150.369 60.6803 150.369 59.0326C150.369 57.3848 151.266 56.0176 153.13 56.0176C154.669 56.0176 155.415 56.9232 155.56 57.8932H154.307C154.185 57.4433 153.876 56.9992 153.09 56.9992C152.058 56.9992 151.662 57.9282 151.662 58.9858C151.662 59.9674 152.006 61.0017 153.125 61.0017C153.94 61.0017 154.197 60.4524 154.307 60.1135H155.566Z" fill="white"/>
<path d="M158.456 60.5637L158.007 61.9017H156.778L158.741 56.0996H160.315L162.366 61.9017H161.049L160.571 60.5637H158.456ZM160.297 59.5353C159.889 58.3083 159.627 57.5311 159.487 57.0053H159.481C159.336 57.5779 159.05 58.4894 158.718 59.5353H160.297Z" fill="white"/>
<path d="M165.163 59.582V61.9017H163.939V56.0996H166.479C167.738 56.0996 168.42 56.7949 168.42 57.6947C168.42 58.4719 168 58.8926 167.581 59.0678C167.866 59.173 168.297 59.471 168.297 60.5111V60.7974C168.297 61.1889 168.297 61.6329 168.379 61.9017H167.196C167.091 61.6505 167.074 61.2181 167.074 60.5987V60.5169C167.074 59.88 166.916 59.582 165.984 59.582H165.163ZM165.163 58.5829H166.211C166.893 58.5829 167.161 58.3199 167.161 57.835C167.161 57.35 166.852 57.0988 166.241 57.0988H165.163V58.5829Z" fill="white"/>
<path d="M174.357 59.4009H171.589V60.8733H174.643L174.497 61.9017H170.377V56.0996H174.479V57.128H171.589V58.3725H174.357V59.4009Z" fill="white"/>
</g>
</g>
<defs>
<filter id="filter0_d_1_53990" x="-4.00024" y="-0.00195312" width="35.0125" height="35.3398" filterUnits="userSpaceOnUse" color-interpolation-filters="sRGB">
<feFlood flood-opacity="0" result="BackgroundImageFix"/>
<feColorMatrix in="SourceAlpha" type="matrix" values="0 0 0 0 0 0 0 0 0 0 0 0 0 0 0 0 0 0 127 0" result="hardAlpha"/>
<feOffset dy="4"/>
<feGaussianBlur stdDeviation="2"/>
<feComposite in2="hardAlpha" operator="out"/>
<feColorMatrix type="matrix" values="0 0 0 0 0 0 0 0 0 0 0 0 0 0 0 0 0 0 0.25 0"/>
<feBlend mode="normal" in2="BackgroundImageFix" result="effect1_dropShadow_1_53990"/>
<feBlend mode="normal" in="SourceGraphic" in2="effect1_dropShadow_1_53990" result="shape"/>
</filter>
<filter id="filter1_d_1_53990" x="11.3298" y="18.3535" width="19.4553" height="17.0156" filterUnits="userSpaceOnUse" color-interpolation-filters="sRGB">
<feFlood flood-opacity="0" result="BackgroundImageFix"/>
<feColorMatrix in="SourceAlpha" type="matrix" values="0 0 0 0 0 0 0 0 0 0 0 0 0 0 0 0 0 0 127 0" result="hardAlpha"/>
<feOffset dy="4"/>
<feGaussianBlur stdDeviation="2"/>
<feComposite in2="hardAlpha" operator="out"/>
<feColorMatrix type="matrix" values="0 0 0 0 0 0 0 0 0 0 0 0 0 0 0 0 0 0 0.25 0"/>
<feBlend mode="normal" in2="BackgroundImageFix" result="effect1_dropShadow_1_53990"/>
<feBlend mode="normal" in="SourceGraphic" in2="effect1_dropShadow_1_53990" result="shape"/>
</filter>
<filter id="filter2_d_1_53990" x="3.04443" y="6.73633" width="40.9558" height="41.0488" filterUnits="userSpaceOnUse" color-interpolation-filters="sRGB">
<feFlood flood-opacity="0" result="BackgroundImageFix"/>
<feColorMatrix in="SourceAlpha" type="matrix" values="0 0 0 0 0 0 0 0 0 0 0 0 0 0 0 0 0 0 127 0" result="hardAlpha"/>
<feOffset dy="4"/>
<feGaussianBlur stdDeviation="2"/>
<feComposite in2="hardAlpha" operator="out"/>
<feColorMatrix type="matrix" values="0 0 0 0 0 0 0 0 0 0 0 0 0 0 0 0 0 0 0.25 0"/>
<feBlend mode="normal" in2="BackgroundImageFix" result="effect1_dropShadow_1_53990"/>
<feBlend mode="normal" in="SourceGraphic" in2="effect1_dropShadow_1_53990" result="shape"/>
</filter>
<filter id="filter3_d_1_53990" x="27.3242" y="26.9883" width="152.676" height="28.9062" filterUnits="userSpaceOnUse" color-interpolation-filters="sRGB">
<feFlood flood-opacity="0" result="BackgroundImageFix"/>
<feColorMatrix in="SourceAlpha" type="matrix" values="0 0 0 0 0 0 0 0 0 0 0 0 0 0 0 0 0 0 127 0" result="hardAlpha"/>
<feOffset dy="4"/>
<feGaussianBlur stdDeviation="2"/>
<feComposite in2="hardAlpha" operator="out"/>
<feColorMatrix type="matrix" values="0 0 0 0 0 0 0 0 0 0 0 0 0 0 0 0 0 0 0.25 0"/>
<feBlend mode="normal" in2="BackgroundImageFix" result="effect1_dropShadow_1_53990"/>
<feBlend mode="normal" in="SourceGraphic" in2="effect1_dropShadow_1_53990" result="shape"/>
</filter>
<filter id="filter4_d_1_53990" x="27.3999" y="56.0117" width="151.243" height="13.9824" filterUnits="userSpaceOnUse" color-interpolation-filters="sRGB">
<feFlood flood-opacity="0" result="BackgroundImageFix"/>
<feColorMatrix in="SourceAlpha" type="matrix" values="0 0 0 0 0 0 0 0 0 0 0 0 0 0 0 0 0 0 127 0" result="hardAlpha"/>
<feOffset dy="4"/>
<feGaussianBlur stdDeviation="2"/>
<feComposite in2="hardAlpha" operator="out"/>
<feColorMatrix type="matrix" values="0 0 0 0 0 0 0 0 0 0 0 0 0 0 0 0 0 0 0.25 0"/>
<feBlend mode="normal" in2="BackgroundImageFix" result="effect1_dropShadow_1_53990"/>
<feBlend mode="normal" in="SourceGraphic" in2="effect1_dropShadow_1_53990" result="shape"/>
</filter>
<clipPath id="clip0_1_53990">
<rect width="176" height="62" fill="white"/>
</clipPath>
</defs>
</svg>
