<svg width="73" height="72" viewBox="0 0 73 72" fill="none" xmlns="http://www.w3.org/2000/svg">
<path d="M48.8426 15.9792C47.5886 17.1529 45.8815 17.8931 44.501 18.3266C39.7907 4.12581 21.2232 -1.23517 9.53694 9.69828C-4.50982 23.2012 3.85712 44.7826 20.7596 47.7433C20.3592 48.3566 19.9166 48.917 19.4213 49.4774C-1.3169 45.1844 -7.17586 17.597 10.3589 4.74968C23.1622 -4.60825 41.7507 0.435513 48.3578 14.8478C48.5264 15.2179 48.695 15.5985 48.8531 15.9792H48.8426Z" fill="white"/>
<path d="M48.4493 33.2158V47.0571H35.7619C33.6228 48.2202 31.3255 49.0556 28.9546 49.5314C28.5014 49.0133 28.0905 48.474 27.7322 47.9136C28.0272 47.8713 28.3118 47.829 28.6068 47.7867C30.6827 47.4272 32.727 46.7822 34.6554 45.894V33.2264H48.4493V33.2158Z" fill="white"/>
<path d="M72.3144 23.6567C72.2723 29.6732 67.4565 34.6641 61.4606 34.8756C58.8894 34.9708 56.2971 34.1037 54.2739 32.5282C52.3033 30.995 51.1547 28.7004 49.1631 27.2412C47.2452 25.8243 44.9059 25.5705 42.5243 25.5705C41.2914 25.5705 40.2061 25.7397 39.2366 26.0464C39.2155 26.0464 39.1839 26.0675 39.1523 26.0781C37.8561 26.5751 34.9794 28.859 33.2301 30.3182C33.209 30.3394 33.1669 30.3817 33.0931 30.4346C32.9034 30.6037 32.5346 30.9421 32.0499 31.3651C31.7654 31.6294 31.4281 31.9361 31.0699 32.2638C29.8791 33.3847 28.467 34.7593 27.5608 35.8273C27.5292 35.859 27.5081 35.8907 27.4765 35.933C27.2447 36.2502 26.9918 36.6415 26.7916 37.0856C26.1698 38.6399 26.0328 40.3741 26.0328 42.1188C26.0328 44.5296 26.6862 46.3272 27.7294 47.9133C28.0877 48.4737 28.5092 49.013 28.9518 49.5311C29.8896 50.6308 30.975 51.6776 32.1131 52.8301C34.1047 54.8603 35.3166 57.6519 35.3166 60.7183C35.3166 66.9569 30.2585 72.0218 24.0307 72.0007C18.119 71.9795 13.1558 67.253 12.8396 61.321C12.6816 58.4132 13.6932 55.4313 15.6954 53.2848C17.0231 51.8679 18.3298 50.7048 19.4257 49.4676C19.921 48.9178 20.3636 48.3468 20.764 47.7335C21.7124 46.2426 22.313 44.519 22.313 42.1082C22.313 39.6973 22.0285 37.4979 20.4795 35.5312C19.784 34.643 18.8777 33.8817 17.9504 33.1203C17.9504 33.1203 17.9434 33.1133 17.9293 33.0992C16.9177 32.4542 16.022 31.64 15.2844 30.7201C15.179 30.5932 15.0736 30.4769 14.9683 30.3394C14.7891 30.0962 14.6205 29.8424 14.4624 29.5992C13.356 27.8439 12.7237 25.7609 12.7343 23.5404C12.7343 21.7851 13.1558 20.125 13.9039 18.6446C13.9882 18.4754 14.0725 18.3063 14.1568 18.1371C14.2517 17.9785 14.3255 17.8199 14.4203 17.6718C14.5573 17.4498 14.6943 17.2171 14.8523 17.0162C14.9577 16.8682 15.0526 16.7413 15.1685 16.5933C15.3792 16.3184 15.6111 16.0646 15.8534 15.8002C16.0852 15.557 16.3382 15.3033 16.6016 15.0706C17.002 14.7323 17.4235 14.415 17.845 14.1296C18.0031 14.0238 18.1401 13.9392 18.2982 13.8441C18.8567 13.5057 19.4573 13.2308 20.0685 13.0087C20.3319 12.9136 20.5954 12.829 20.8694 12.7444C21.6808 12.5012 22.5132 12.3426 23.3879 12.3003C26.2857 12.1417 29.2574 13.1568 31.3965 15.1658C34.9793 18.56 36.9604 21.8062 42.5454 21.8062C42.6719 21.8062 42.7878 21.8062 42.9142 21.8062C43.7362 21.8062 44.537 21.7534 45.3379 21.637C46.8343 21.3938 48.2463 20.8969 49.4792 19.9346C49.6584 19.7866 49.848 19.6386 50.0167 19.4694C51.1442 18.4649 52.0926 17.2594 53.1147 16.1175C53.9577 15.1658 54.864 14.2776 55.9599 13.6114C57.6143 12.6175 59.3741 12.184 61.0918 12.1945C66.9191 12.2474 72.3671 17.4392 72.3355 23.6355L72.3144 23.6567Z" fill="white"/>
</svg>
