<svg width="176" height="62" viewBox="0 0 176 62" fill="none" xmlns="http://www.w3.org/2000/svg">
<g clip-path="url(#clip0_1_55690)">
<g filter="url(#filter0_d_1_55690)">
<path d="M27.0067 8.82888C26.3134 9.47745 25.3694 9.88646 24.6061 10.126C22.0016 2.27888 11.7351 -0.683512 5.2733 5.35814C-2.49363 12.8196 2.13273 24.7452 11.4787 26.3812C11.2573 26.7201 11.0126 27.0298 10.7387 27.3395C-0.728157 24.9672 -3.96778 9.72286 5.72778 2.62362C12.8072 -2.54743 23.0854 0.239681 26.7387 8.20368C26.8319 8.40819 26.9252 8.61853 27.0126 8.82888H27.0067Z" fill="white"/>
</g>
<g filter="url(#filter1_d_1_55690)">
<path d="M26.7833 18.3535V26.002H19.768C18.5852 26.6447 17.315 27.1063 16.004 27.3693C15.7535 27.0829 15.5262 26.785 15.3281 26.4753C15.4913 26.4519 15.6486 26.4285 15.8117 26.4052C16.9596 26.2065 18.09 25.8501 19.1562 25.3593V18.3594H26.7833V18.3535Z" fill="#063533"/>
</g>
<g filter="url(#filter2_d_1_55690)">
<path d="M39.9909 13.0702C39.9676 16.3949 37.3048 19.1528 33.9894 19.2697C32.5677 19.3222 31.1343 18.8431 30.0156 17.9725C28.926 17.1253 28.2909 15.8573 27.1897 15.051C26.1292 14.2681 24.8357 14.1278 23.5189 14.1278C22.8372 14.1278 22.237 14.2213 21.701 14.3908C21.6893 14.3908 21.6719 14.4024 21.6544 14.4083C20.9377 14.6829 19.347 15.945 18.3798 16.7513C18.3681 16.763 18.3448 16.7864 18.304 16.8156C18.1992 16.9091 17.9952 17.0961 17.7272 17.3298C17.5699 17.4759 17.3834 17.6453 17.1853 17.8264C16.5269 18.4458 15.7461 19.2054 15.2451 19.7955C15.2276 19.8131 15.2159 19.8306 15.1984 19.854C15.0703 20.0292 14.9304 20.2454 14.8197 20.4908C14.4759 21.3498 14.4002 22.308 14.4002 23.2721C14.4002 24.6043 14.7614 25.5976 15.3383 26.4741C15.5364 26.7837 15.7695 27.0817 16.0142 27.368C16.5327 27.9757 17.1329 28.5542 17.7622 29.1911C18.8634 30.3129 19.5335 31.8555 19.5335 33.5499C19.5335 36.9973 16.7367 39.7961 13.2931 39.7844C10.0244 39.7727 7.28001 37.1609 7.10521 33.883C7.01781 32.2762 7.57717 30.6284 8.68424 29.4423C9.4184 28.6593 10.1409 28.0166 10.7469 27.333C11.0207 27.0291 11.2654 26.7136 11.4869 26.3747C12.0113 25.5509 12.3434 24.5985 12.3434 23.2663C12.3434 21.9341 12.1861 20.7187 11.3295 19.6319C10.945 19.1411 10.4439 18.7204 9.93114 18.2997C9.93114 18.2997 9.92726 18.2958 9.91949 18.288C9.36013 17.9316 8.86486 17.4817 8.457 16.9734C8.39873 16.9032 8.34046 16.839 8.2822 16.763C8.18314 16.6286 8.08992 16.4884 8.00252 16.354C7.39072 15.3841 7.04112 14.233 7.04695 13.006C7.04695 12.036 7.28001 11.1187 7.69371 10.3007C7.74032 10.2072 7.78693 10.1137 7.83355 10.0202C7.88598 9.93255 7.92677 9.8449 7.97921 9.7631C8.05496 9.6404 8.1307 9.51185 8.2181 9.40084C8.27637 9.31904 8.32881 9.24892 8.3929 9.16712C8.50944 9.0152 8.63762 8.87497 8.77164 8.72889C8.89982 8.5945 9.03966 8.45427 9.18533 8.32573C9.40674 8.13875 9.63981 7.96346 9.87288 7.8057C9.96028 7.74727 10.036 7.70053 10.1234 7.64794C10.4322 7.46096 10.7644 7.30905 11.1023 7.18634C11.248 7.13376 11.3936 7.08701 11.5451 7.04027C11.9938 6.90588 12.4541 6.81823 12.9377 6.79486C14.54 6.70722 16.1831 7.26814 17.366 8.37831C19.347 10.2539 20.4424 12.0477 23.5306 12.0477C23.6005 12.0477 23.6646 12.0477 23.7345 12.0477C24.189 12.0477 24.6318 12.0185 25.0746 11.9542C25.902 11.8198 26.6828 11.5452 27.3645 11.0135C27.4636 10.9317 27.5684 10.8499 27.6617 10.7564C28.2851 10.2013 28.8095 9.53523 29.3747 8.90418C29.8408 8.37831 30.3419 7.8875 30.9479 7.51939C31.8627 6.97015 32.8357 6.73059 33.7855 6.73643C37.0076 6.76565 40.02 9.63456 40.0025 13.0586L39.9909 13.0702Z" fill="white"/>
</g>
<g filter="url(#filter3_d_1_55690)">
<path d="M31.3203 27.3857H45.6888V31.7855H37.2052V35.4666H45.147V39.8722H37.2052V47.4973H31.3203V27.3916V27.3857Z" fill="white"/>
<path d="M54.4838 27.3857V47.4915H48.4766V27.3857H54.4838Z" fill="white"/>
<path d="M61.9941 31.7972H56.7734V27.3857H73.1696V31.7972H67.9956V47.4915H61.9883V31.7972H61.9941Z" fill="white"/>
<path d="M75.4844 47.4915V27.3857H82.6395C86.0656 35.9574 87.26 39.0133 87.6038 40.1702H87.7204C87.5106 37.8564 87.429 34.3447 87.429 31.2655V27.3857H92.9294V47.4915H86.0423C82.4064 38.1661 81.2469 35.2738 80.8624 34.111H80.7866C80.9789 36.5242 80.9789 40.0125 80.9789 43.4715V47.4915H75.4902H75.4844Z" fill="white"/>
<path d="M101.093 43.6L100.155 47.4915H94.2812L99.8807 27.3857H107.962L113.801 47.4915H107.572L106.541 43.6H101.093ZM105.579 39.0425C104.862 36.2905 104.198 33.3865 103.79 31.2889H103.691C103.295 33.5034 102.666 36.3255 101.984 39.0425H105.579Z" fill="white"/>
<path d="M119.105 41.3036C119.32 42.9455 120.282 43.8336 122.018 43.8336C123.754 43.8336 124.314 43.15 124.314 42.0924C124.314 40.7661 123.422 40.1642 120.62 39.4163C115.352 38.0199 113.948 36.004 113.948 33.2344C113.948 29.2787 117.112 26.9883 121.744 26.9883C126.912 26.9883 129.604 29.4657 129.832 33.2052H124.191C124.052 32.0133 123.498 30.9966 121.779 30.9966C120.532 30.9966 119.816 31.5517 119.816 32.5508C119.816 33.7019 120.643 34.07 123.376 34.8237C128.905 36.3546 130.344 38.3938 130.344 41.4438C130.344 45.4288 127.285 47.877 121.861 47.877C116.436 47.877 113.668 45.271 113.406 41.2978H119.105V41.3036Z" fill="white"/>
<path d="M135.689 31.7972H130.469V27.3857H146.865V31.7972H141.691V47.4915H135.684V31.7972H135.689Z" fill="white"/>
<path d="M155.195 27.3857V47.4915H149.188V27.3857H155.195Z" fill="white"/>
<path d="M175.999 40.731C175.411 44.9204 172.684 47.8945 167.096 47.8945C160.25 47.8945 157.797 43.1851 157.797 37.4998C157.797 31.8146 160.71 26.9883 167.318 26.9883C173.552 26.9883 175.714 30.8505 175.912 34.0408H170.004C169.753 32.5158 169.211 31.2537 167.242 31.2537C164.824 31.2537 164.026 33.7253 164.026 37.4414C164.026 41.1575 164.795 43.6058 167.242 43.6058C169.287 43.6058 169.835 42.0749 170.074 40.7193H175.999V40.731Z" fill="white"/>
</g>
<g filter="url(#filter4_d_1_55690)">
<path d="M31.3984 56.1045H33.7932C35.0226 56.1045 35.8558 56.7998 35.8558 57.8983C35.8558 59.1604 34.9061 59.7388 33.7641 59.7388H32.6512V61.9066H31.3984V56.1045ZM32.6453 58.7397H33.6009C34.1778 58.7397 34.5914 58.5176 34.5914 57.9217C34.5914 57.3257 34.1603 57.0978 33.63 57.0978H32.6512V58.7338L32.6453 58.7397Z" fill="white"/>
<path d="M41.6124 59.3999H38.8448V60.8724H41.8979L41.7523 61.9007H37.6328V56.0986H41.7348V57.127H38.8448V58.3716H41.6124V59.3999Z" fill="white"/>
<path d="M44.8486 59.5811V61.9007H43.625V56.0986H46.1654C47.424 56.0986 48.1057 56.7939 48.1057 57.6938C48.1057 58.4709 47.6862 58.8916 47.2667 59.0669C47.5522 59.172 47.9833 59.47 47.9833 60.5101V60.7964C47.9833 61.1879 47.9833 61.6319 48.0649 61.9007H46.8821C46.7772 61.6495 46.7597 61.2171 46.7597 60.5977V60.5159C46.7597 59.879 46.6024 59.5811 45.6702 59.5811H44.8486ZM44.8486 58.5819H45.8974C46.5791 58.5819 46.8471 58.319 46.8471 57.834C46.8471 57.349 46.5383 57.0978 45.9265 57.0978H44.8486V58.5819Z" fill="white"/>
<path d="M50.9617 60.2002C51.0957 60.7845 51.5094 61.0357 52.1795 61.0357C52.8495 61.0357 53.135 60.7728 53.135 60.3462C53.135 59.873 52.8553 59.6685 51.8648 59.4406C50.2916 59.0725 49.9012 58.494 49.9012 57.7111C49.9012 56.7002 50.6529 56.0107 52.0221 56.0107C53.5604 56.0107 54.1722 56.8404 54.2537 57.6877H52.9952C52.9369 57.3313 52.7388 56.9456 51.993 56.9456C51.4861 56.9456 51.1773 57.156 51.1773 57.565C51.1773 57.974 51.422 58.1317 52.3601 58.3479C54.044 58.7453 54.4111 59.3705 54.4111 60.1885C54.4111 61.2461 53.6128 61.9764 52.0804 61.9764C50.548 61.9764 49.8371 61.2519 49.7031 60.1943H50.9617V60.2002Z" fill="white"/>
<path d="M61.572 58.9848C61.572 60.5975 60.6048 61.9881 58.7286 61.9881C56.8524 61.9881 55.9609 60.6676 55.9609 59.0024C55.9609 57.3371 57.0097 56.0166 58.8043 56.0166C60.4999 56.0166 61.572 57.2027 61.572 58.979V58.9848ZM57.2545 58.979C57.2545 60.1125 57.7497 60.9656 58.7752 60.9656C59.8881 60.9656 60.2843 60.0307 60.2843 58.9965C60.2843 57.898 59.8357 57.0391 58.7577 57.0391C57.6798 57.0391 57.2545 57.8513 57.2545 58.979Z" fill="white"/>
<path d="M63.5078 61.9007V56.0986H65.0577C65.7802 57.4016 67.1145 59.7505 67.3825 60.3815H67.4C67.3359 59.7739 67.3359 58.7689 67.3359 57.8165V56.0986H68.4721V61.9007H67.0038C66.3804 60.7672 64.9004 58.0677 64.6149 57.3958H64.5974C64.6382 57.9041 64.6557 59.0961 64.6557 60.1361V61.9007H63.5136H63.5078Z" fill="white"/>
<path d="M71.764 60.5627L71.3154 61.9007H70.0859L72.0495 56.0986H73.6227L75.6737 61.9007H74.3569L73.8791 60.5627H71.764ZM73.6111 59.5343C73.2032 58.3073 72.941 57.5302 72.8012 57.0043H72.7953C72.6555 57.5769 72.3642 58.4884 72.032 59.5343H73.6111Z" fill="white"/>
<path d="M77.2558 56.1035H78.5086V60.8772H81.3869L81.2413 61.9056H77.25V56.1035H77.2558Z" fill="white"/>
<path d="M84.2137 56.1035V61.9056H82.9609V56.1035H84.2137Z" fill="white"/>
<path d="M87.2449 60.2002C87.3789 60.7845 87.7926 61.0357 88.4627 61.0357C89.1328 61.0357 89.4183 60.7728 89.4183 60.3462C89.4183 59.873 89.1386 59.6685 88.148 59.4406C86.5749 59.0725 86.1845 58.494 86.1845 57.7111C86.1845 56.7002 86.9419 56.0107 88.3112 56.0107C89.8494 56.0107 90.4554 56.8404 90.5428 57.6877H89.2843C89.226 57.3313 89.0279 56.9456 88.2821 56.9456C87.7751 56.9456 87.4663 57.156 87.4663 57.565C87.4663 57.974 87.7111 58.1317 88.6491 58.3479C90.333 58.7453 90.7001 59.3705 90.7001 60.1885C90.7001 61.2461 89.9019 61.9764 88.3753 61.9764C86.8487 61.9764 86.132 61.2519 85.9922 60.1943H87.2507L87.2449 60.2002Z" fill="white"/>
<path d="M93.7059 56.1035V61.9056H92.4531V56.1035H93.7059Z" fill="white"/>
<path d="M95.9297 61.9007V56.0986H97.4796C98.2021 57.4016 99.5364 59.7505 99.8044 60.3815H99.8219C99.7578 59.7739 99.7578 58.7689 99.7578 57.8165V56.0986H100.894V61.9007H99.4257C98.8022 60.7672 97.3223 58.0677 97.0367 57.3958H97.0193C97.0601 57.9041 97.0775 59.0961 97.0775 60.1361V61.9007H95.9355H95.9297Z" fill="white"/>
<path d="M108.134 61.9005H107.219C107.173 61.7193 107.138 61.5207 107.126 61.3279C106.806 61.7602 106.241 61.994 105.436 61.994C103.758 61.994 102.82 60.7202 102.82 59.0666C102.82 57.3254 103.834 56.0107 105.658 56.0107C107.144 56.0107 108.024 56.8521 108.163 57.8396H106.911C106.794 57.4481 106.485 56.9924 105.64 56.9924C104.452 56.9924 104.114 57.9915 104.114 59.0082C104.114 60.0249 104.504 60.989 105.646 60.989C106.718 60.989 106.911 60.2469 106.911 59.7269V59.6743H105.64V58.6459H108.134V61.8888V61.9005Z" fill="white"/>
<path d="M113.117 56.1045H114.37V58.3657H116.695V56.1045H117.947V61.9066H116.695V59.3941H114.37V61.9066H113.117V56.1045Z" fill="white"/>
<path d="M124.151 59.3999H121.384V60.8724H124.437L124.291 61.9007H120.172V56.0986H124.274V57.127H121.384V58.3716H124.151V59.3999Z" fill="white"/>
<path d="M127.459 60.5627L127.011 61.9007H125.781L127.745 56.0986H129.318L131.369 61.9007H130.052L129.574 60.5627H127.459ZM129.306 59.5343C128.899 58.3073 128.636 57.5302 128.496 57.0043H128.491C128.345 57.5769 128.059 58.4884 127.727 59.5343H129.306Z" fill="white"/>
<path d="M132.951 56.1045H134.204V60.8782H137.082L136.937 61.9066H132.945V56.1045H132.951Z" fill="white"/>
<path d="M138.986 57.1319H137.227V56.1035H141.987V57.1319H140.233V61.9056H138.98V57.1319H138.986Z" fill="white"/>
<path d="M143.609 56.1035H144.862V58.3648H147.187V56.1035H148.44V61.9056H147.187V59.3931H144.862V61.9056H143.609V56.1035Z" fill="white"/>
<path d="M155.565 60.1125C155.331 61.1935 154.522 61.9823 153.071 61.9823C151.235 61.9823 150.367 60.6793 150.367 59.0316C150.367 57.3839 151.264 56.0166 153.129 56.0166C154.667 56.0166 155.413 56.9223 155.559 57.8922H154.306C154.184 57.4423 153.875 56.9982 153.088 56.9982C152.057 56.9982 151.661 57.9273 151.661 58.9848C151.661 59.9665 152.004 61.0007 153.123 61.0007C153.939 61.0007 154.195 60.4514 154.306 60.1125H155.565Z" fill="white"/>
<path d="M158.452 60.5627L158.003 61.9007H156.773L158.737 56.0986H160.31L162.361 61.9007H161.044L160.567 60.5627H158.452ZM160.293 59.5343C159.885 58.3073 159.623 57.5302 159.483 57.0043H159.477C159.331 57.5769 159.046 58.4884 158.714 59.5343H160.293Z" fill="white"/>
<path d="M165.161 59.5811V61.9007H163.938V56.0986H166.478C167.736 56.0986 168.418 56.7939 168.418 57.6938C168.418 58.4709 167.999 58.8916 167.579 59.0669C167.865 59.172 168.296 59.47 168.296 60.5101V60.7964C168.296 61.1879 168.296 61.6319 168.377 61.9007H167.195C167.09 61.6495 167.072 61.2171 167.072 60.5977V60.5159C167.072 59.879 166.915 59.5811 165.983 59.5811H165.161ZM165.161 58.5819H166.21C166.892 58.5819 167.16 58.319 167.16 57.834C167.16 57.349 166.851 57.0978 166.239 57.0978H165.161V58.5819Z" fill="white"/>
<path d="M174.355 59.3999H171.587V60.8724H174.64L174.494 61.9007H170.375V56.0986H174.477V57.127H171.587V58.3716H174.355V59.3999Z" fill="white"/>
</g>
</g>
<defs>
<filter id="filter0_d_1_55690" x="-4" y="-0.000976562" width="35.0127" height="35.3408" filterUnits="userSpaceOnUse" color-interpolation-filters="sRGB">
<feFlood flood-opacity="0" result="BackgroundImageFix"/>
<feColorMatrix in="SourceAlpha" type="matrix" values="0 0 0 0 0 0 0 0 0 0 0 0 0 0 0 0 0 0 127 0" result="hardAlpha"/>
<feOffset dy="4"/>
<feGaussianBlur stdDeviation="2"/>
<feComposite in2="hardAlpha" operator="out"/>
<feColorMatrix type="matrix" values="0 0 0 0 0 0 0 0 0 0 0 0 0 0 0 0 0 0 0.25 0"/>
<feBlend mode="normal" in2="BackgroundImageFix" result="effect1_dropShadow_1_55690"/>
<feBlend mode="normal" in="SourceGraphic" in2="effect1_dropShadow_1_55690" result="shape"/>
</filter>
<filter id="filter1_d_1_55690" x="11.3281" y="18.3535" width="19.4551" height="17.0156" filterUnits="userSpaceOnUse" color-interpolation-filters="sRGB">
<feFlood flood-opacity="0" result="BackgroundImageFix"/>
<feColorMatrix in="SourceAlpha" type="matrix" values="0 0 0 0 0 0 0 0 0 0 0 0 0 0 0 0 0 0 127 0" result="hardAlpha"/>
<feOffset dy="4"/>
<feGaussianBlur stdDeviation="2"/>
<feComposite in2="hardAlpha" operator="out"/>
<feColorMatrix type="matrix" values="0 0 0 0 0 0 0 0 0 0 0 0 0 0 0 0 0 0 0.25 0"/>
<feBlend mode="normal" in2="BackgroundImageFix" result="effect1_dropShadow_1_55690"/>
<feBlend mode="normal" in="SourceGraphic" in2="effect1_dropShadow_1_55690" result="shape"/>
</filter>
<filter id="filter2_d_1_55690" x="3.04688" y="6.73633" width="40.9561" height="41.0479" filterUnits="userSpaceOnUse" color-interpolation-filters="sRGB">
<feFlood flood-opacity="0" result="BackgroundImageFix"/>
<feColorMatrix in="SourceAlpha" type="matrix" values="0 0 0 0 0 0 0 0 0 0 0 0 0 0 0 0 0 0 127 0" result="hardAlpha"/>
<feOffset dy="4"/>
<feGaussianBlur stdDeviation="2"/>
<feComposite in2="hardAlpha" operator="out"/>
<feColorMatrix type="matrix" values="0 0 0 0 0 0 0 0 0 0 0 0 0 0 0 0 0 0 0.25 0"/>
<feBlend mode="normal" in2="BackgroundImageFix" result="effect1_dropShadow_1_55690"/>
<feBlend mode="normal" in="SourceGraphic" in2="effect1_dropShadow_1_55690" result="shape"/>
</filter>
<filter id="filter3_d_1_55690" x="27.3203" y="26.9883" width="152.679" height="28.9062" filterUnits="userSpaceOnUse" color-interpolation-filters="sRGB">
<feFlood flood-opacity="0" result="BackgroundImageFix"/>
<feColorMatrix in="SourceAlpha" type="matrix" values="0 0 0 0 0 0 0 0 0 0 0 0 0 0 0 0 0 0 127 0" result="hardAlpha"/>
<feOffset dy="4"/>
<feGaussianBlur stdDeviation="2"/>
<feComposite in2="hardAlpha" operator="out"/>
<feColorMatrix type="matrix" values="0 0 0 0 0 0 0 0 0 0 0 0 0 0 0 0 0 0 0.25 0"/>
<feBlend mode="normal" in2="BackgroundImageFix" result="effect1_dropShadow_1_55690"/>
<feBlend mode="normal" in="SourceGraphic" in2="effect1_dropShadow_1_55690" result="shape"/>
</filter>
<filter id="filter4_d_1_55690" x="27.3984" y="56.0107" width="151.241" height="13.9834" filterUnits="userSpaceOnUse" color-interpolation-filters="sRGB">
<feFlood flood-opacity="0" result="BackgroundImageFix"/>
<feColorMatrix in="SourceAlpha" type="matrix" values="0 0 0 0 0 0 0 0 0 0 0 0 0 0 0 0 0 0 127 0" result="hardAlpha"/>
<feOffset dy="4"/>
<feGaussianBlur stdDeviation="2"/>
<feComposite in2="hardAlpha" operator="out"/>
<feColorMatrix type="matrix" values="0 0 0 0 0 0 0 0 0 0 0 0 0 0 0 0 0 0 0.25 0"/>
<feBlend mode="normal" in2="BackgroundImageFix" result="effect1_dropShadow_1_55690"/>
<feBlend mode="normal" in="SourceGraphic" in2="effect1_dropShadow_1_55690" result="shape"/>
</filter>
<clipPath id="clip0_1_55690">
<rect width="176" height="62" fill="white"/>
</clipPath>
</defs>
</svg>
